<?xml version="1.0" standalone="no"?>
<!DOCTYPE svg PUBLIC "-//W3C//DTD SVG 20010904//EN"
 "http://www.w3.org/TR/2001/REC-SVG-20010904/DTD/svg10.dtd">
<svg version="1.0" xmlns="http://www.w3.org/2000/svg"
 width="100.000000pt" height="100.000000pt" viewBox="0 0 100.000000 100.000000"
 preserveAspectRatio="xMidYMid meet">
<metadata>
Created by potrace 1.14, written by Peter Selinger 2001-2017
</metadata>
<g transform="translate(0.000000,100.000000) scale(0.100000,-0.100000)"
fill="#000000" stroke="none">
<path d="M602 724 c-55 -46 -18 -246 63 -342 77 -92 254 -110 303 -31 22 35
16 105 -12 164 -71 144 -281 268 -354 209z"/>
<path d="M275 710 c-142 -55 -270 -226 -249 -334 12 -69 56 -92 155 -83 144
13 240 141 248 329 2 50 -1 61 -23 83 -30 30 -62 31 -131 5z"/>
<path d="M449 365 c-14 -8 -33 -25 -42 -38 -25 -38 -4 -57 70 -64 85 -8 133 2
133 28 0 33 -20 60 -55 75 -43 17 -73 17 -106 -1z"/>
</g>
</svg>
